<svg width="17" height="18" viewBox="0 0 17 18" fill="none" xmlns="http://www.w3.org/2000/svg">
<path fill-rule="evenodd" clip-rule="evenodd" d="M2.30684 0.666659C2.31569 0.66666 2.32455 0.666661 2.33342 0.666661H5.50009C5.50895 0.666661 5.51782 0.66666 5.52667 0.666659C5.73699 0.666634 5.94181 0.666609 6.11528 0.680782C6.30577 0.696346 6.53055 0.733069 6.75674 0.848317C7.07034 1.00811 7.32531 1.26307 7.4851 1.57668C7.60034 1.80286 7.63707 2.02764 7.65263 2.21814C7.6668 2.39161 7.66678 2.59644 7.66675 2.80676V6.02656C7.66678 6.23689 7.6668 6.44172 7.65263 6.61519C7.63707 6.80568 7.60034 7.03046 7.4851 7.25665C7.32531 7.57025 7.07034 7.82522 6.75674 7.985C6.53055 8.10025 6.30577 8.13698 6.11528 8.15254C5.94181 8.16671 5.73698 8.16669 5.52665 8.16666H2.30685C2.09653 8.16669 1.8917 8.16671 1.71823 8.15254C1.52773 8.13698 1.30295 8.10025 1.07677 7.985C0.763165 7.82522 0.508197 7.57025 0.348408 7.25665C0.23316 7.03046 0.196437 6.80568 0.180873 6.61519C0.166701 6.44172 0.166725 6.23689 0.16675 6.02658C0.166751 6.01772 0.166752 6.00886 0.166752 5.99999V2.83333C0.166752 2.82446 0.166751 2.8156 0.16675 2.80675C0.166725 2.59643 0.166701 2.3916 0.180873 2.21814C0.196437 2.02764 0.23316 1.80286 0.348408 1.57668C0.508197 1.26307 0.763165 1.00811 1.07677 0.848317C1.30295 0.733069 1.52773 0.696346 1.71823 0.680782C1.89169 0.666609 2.09652 0.666634 2.30684 0.666659ZM1.84296 2.34287C1.84264 2.34633 1.84232 2.34999 1.84201 2.35386C1.83407 2.45101 1.83342 2.58622 1.83342 2.83333V5.99999C1.83342 6.2471 1.83407 6.38231 1.84201 6.47947C1.84232 6.48333 1.84264 6.487 1.84296 6.49045C1.84642 6.49077 1.85008 6.49109 1.85395 6.49141C1.9511 6.49935 2.08631 6.49999 2.33342 6.49999H5.50009C5.74719 6.49999 5.8824 6.49935 5.97956 6.49141C5.98343 6.49109 5.98709 6.49077 5.99055 6.49045C5.99086 6.487 5.99118 6.48333 5.9915 6.47947C5.99944 6.38231 6.00009 6.2471 6.00009 5.99999V2.83333C6.00009 2.58622 5.99944 2.45101 5.9915 2.35386C5.99118 2.34999 5.99086 2.34633 5.99055 2.34287C5.98709 2.34255 5.98343 2.34223 5.97956 2.34191C5.8824 2.33398 5.74719 2.33333 5.50009 2.33333H2.33342C2.08631 2.33333 1.9511 2.33398 1.85395 2.34191C1.85008 2.34223 1.84642 2.34255 1.84296 2.34287ZM11.4735 0.666659H14.6933C14.9037 0.666634 15.1085 0.666609 15.2819 0.680782C15.4724 0.696346 15.6972 0.733069 15.9234 0.848317C16.237 1.00811 16.492 1.26307 16.6518 1.57668C16.767 1.80286 16.8037 2.02764 16.8193 2.21814C16.8335 2.3916 16.8334 2.59642 16.8334 2.80673V6.02659C16.8334 6.2369 16.8335 6.44172 16.8193 6.61519C16.8037 6.80568 16.767 7.03046 16.6518 7.25665C16.492 7.57025 16.237 7.82522 15.9234 7.985C15.6972 8.10025 15.4724 8.13698 15.2819 8.15254C15.1085 8.16671 14.9036 8.16669 14.6933 8.16666H11.4735C11.2632 8.16669 11.0584 8.16671 10.8849 8.15254C10.6944 8.13698 10.4696 8.10025 10.2434 7.985C9.92983 7.82522 9.67486 7.57025 9.51508 7.25665C9.39983 7.03046 9.3631 6.80568 9.34754 6.61519C9.33337 6.44172 9.33339 6.23689 9.33342 6.02656V2.80676C9.33339 2.59644 9.33337 2.39161 9.34754 2.21814C9.3631 2.02764 9.39983 1.80286 9.51508 1.57668C9.67486 1.26307 9.92983 1.00811 10.2434 0.848317C10.4696 0.733069 10.6944 0.696346 10.8849 0.680782C11.0584 0.666609 11.2632 0.666634 11.4735 0.666659ZM11.0096 2.34287C11.0093 2.34633 11.009 2.34999 11.0087 2.35386C11.0007 2.45101 11.0001 2.58622 11.0001 2.83333V5.99999C11.0001 6.2471 11.0007 6.38231 11.0087 6.47947C11.009 6.48333 11.0093 6.487 11.0096 6.49045C11.0131 6.49077 11.0167 6.49109 11.0206 6.49141C11.1178 6.49935 11.253 6.49999 11.5001 6.49999H14.6668C14.9139 6.49999 15.0491 6.49935 15.1462 6.49141C15.1501 6.49109 15.1538 6.49077 15.1572 6.49045C15.1575 6.48699 15.1579 6.48333 15.1582 6.47947C15.1661 6.38231 15.1668 6.2471 15.1668 5.99999V2.83333C15.1668 2.58622 15.1661 2.45101 15.1582 2.35386C15.1579 2.34999 15.1575 2.34632 15.1572 2.34287C15.1537 2.34255 15.1501 2.34223 15.1462 2.34191C15.0491 2.33398 14.9139 2.33333 14.6668 2.33333H11.5001C11.253 2.33333 11.1178 2.33398 11.0206 2.34191C11.0167 2.34223 11.0131 2.34255 11.0096 2.34287ZM2.30685 9.83333H5.52665C5.73698 9.8333 5.94181 9.83328 6.11528 9.84745C6.30577 9.86301 6.53055 9.89974 6.75674 10.015C7.07034 10.1748 7.32531 10.4297 7.4851 10.7433C7.60034 10.9695 7.63707 11.1943 7.65263 11.3848C7.6668 11.5583 7.66678 11.7631 7.66675 11.9734V15.1932C7.66678 15.4036 7.6668 15.6084 7.65263 15.7819C7.63707 15.9723 7.60034 16.1971 7.4851 16.4233C7.32531 16.7369 7.07034 16.9919 6.75674 17.1517C6.53055 17.2669 6.30577 17.3036 6.11528 17.3192C5.94182 17.3334 5.737 17.3334 5.52668 17.3333H2.30682C2.09651 17.3334 1.89169 17.3334 1.71823 17.3192C1.52773 17.3036 1.30295 17.2669 1.07677 17.1517C0.763166 16.9919 0.508198 16.7369 0.348408 16.4233C0.23316 16.1971 0.196437 15.9723 0.180873 15.7819C0.166701 15.6084 0.166725 15.4036 0.16675 15.1932V11.9734C0.166725 11.7631 0.166701 11.5583 0.180873 11.3848C0.196437 11.1943 0.23316 10.9695 0.348408 10.7433C0.508198 10.4297 0.763165 10.1748 1.07677 10.015C1.30295 9.89974 1.52773 9.86301 1.71823 9.84745C1.8917 9.83328 2.09653 9.8333 2.30685 9.83333ZM1.84296 11.5095C1.84264 11.513 1.84232 11.5167 1.84201 11.5205C1.83407 11.6177 1.83342 11.7529 1.83342 12V15.1667C1.83342 15.4138 1.83407 15.549 1.84201 15.6461C1.84232 15.65 1.84264 15.6537 1.84296 15.6571C1.84642 15.6574 1.85008 15.6578 1.85395 15.6581C1.9511 15.666 2.08631 15.6667 2.33342 15.6667H5.50009C5.74719 15.6667 5.8824 15.666 5.97956 15.6581C5.98342 15.6578 5.98709 15.6574 5.99055 15.6571C5.99087 15.6537 5.99118 15.65 5.9915 15.6461C5.99944 15.549 6.00009 15.4138 6.00009 15.1667V12C6.00009 11.7529 5.99944 11.6177 5.9915 11.5205C5.99118 11.5167 5.99086 11.513 5.99055 11.5095C5.98709 11.5092 5.98343 11.5089 5.97956 11.5086C5.8824 11.5006 5.74719 11.5 5.50009 11.5H2.33342C2.08631 11.5 1.9511 11.5006 1.85395 11.5086C1.85008 11.5089 1.84642 11.5092 1.84296 11.5095ZM11.4735 9.83333H14.6933C14.9036 9.8333 15.1085 9.83328 15.2819 9.84745C15.4724 9.86301 15.6972 9.89974 15.9234 10.015C16.237 10.1748 16.492 10.4297 16.6518 10.7433C16.767 10.9695 16.8037 11.1943 16.8193 11.3848C16.8335 11.5583 16.8334 11.7631 16.8334 11.9734V15.1933C16.8334 15.4036 16.8335 15.6084 16.8193 15.7819C16.8037 15.9723 16.767 16.1971 16.6518 16.4233C16.492 16.7369 16.237 16.9919 15.9234 17.1517C15.6972 17.2669 15.4724 17.3036 15.2819 17.3192C15.1085 17.3334 14.9037 17.3334 14.6933 17.3333H11.4735C11.2632 17.3334 11.0584 17.3334 10.8849 17.3192C10.6944 17.3036 10.4696 17.2669 10.2434 17.1517C9.92983 16.9919 9.67486 16.7369 9.51508 16.4233C9.39983 16.1971 9.3631 15.9723 9.34754 15.7819C9.33337 15.6084 9.33339 15.4036 9.33342 15.1932V11.9734C9.33339 11.7631 9.33337 11.5583 9.34754 11.3848C9.3631 11.1943 9.39983 10.9695 9.51508 10.7433C9.67486 10.4297 9.92983 10.1748 10.2434 10.015C10.4696 9.89974 10.6944 9.86301 10.8849 9.84745C11.0584 9.83328 11.2632 9.8333 11.4735 9.83333ZM11.0096 11.5095C11.0093 11.513 11.009 11.5167 11.0087 11.5205C11.0007 11.6177 11.0001 11.7529 11.0001 12V15.1667C11.0001 15.4138 11.0007 15.549 11.0087 15.6461C11.009 15.65 11.0093 15.6537 11.0096 15.6571C11.0131 15.6574 11.0167 15.6578 11.0206 15.6581C11.1178 15.666 11.253 15.6667 11.5001 15.6667H14.6668C14.9139 15.6667 15.0491 15.666 15.1462 15.6581C15.1501 15.6578 15.1538 15.6574 15.1572 15.6571C15.1575 15.6537 15.1579 15.65 15.1582 15.6461C15.1661 15.549 15.1668 15.4138 15.1668 15.1667V12C15.1668 11.7529 15.1661 11.6177 15.1582 11.5205C15.1579 11.5167 15.1575 11.513 15.1572 11.5095C15.1537 11.5092 15.1501 11.5089 15.1462 11.5086C15.0491 11.5006 14.9139 11.5 14.6668 11.5H11.5001C11.253 11.5 11.1178 11.5006 11.0206 11.5086C11.0167 11.5089 11.0131 11.5092 11.0096 11.5095Z" fill="#475569"/>
</svg>
