<svg width="16" height="16" viewBox="0 0 16 16" fill="none" xmlns="http://www.w3.org/2000/svg">
<g clip-path="url(#clip0_1515_50342)">
<path fill-rule="evenodd" clip-rule="evenodd" d="M11.862 1.19526C12.6746 0.382626 13.9922 0.382627 14.8048 1.19526C15.6175 2.0079 15.6175 3.32544 14.8048 4.13807L11.6172 7.32565L8.42966 10.5132C8.41646 10.5264 8.40339 10.5395 8.39042 10.5525C8.19878 10.7445 8.02982 10.9138 7.82613 11.0386C7.64718 11.1483 7.45209 11.2291 7.24802 11.2781C7.01572 11.3338 6.77656 11.3336 6.50529 11.3334C6.48693 11.3333 6.46842 11.3333 6.44976 11.3333H5.3334C4.96521 11.3333 4.66673 11.0349 4.66673 10.6667V9.55032C4.66673 9.53166 4.66671 9.51315 4.6667 9.49479C4.66644 9.22352 4.66622 8.98436 4.72199 8.75206C4.77099 8.54799 4.85179 8.3529 4.96145 8.17395C5.08628 7.97026 5.25555 7.8013 5.44754 7.60967C5.46054 7.59669 5.47364 7.58362 5.48683 7.57042L8.67442 4.38284L11.862 1.19526ZM13.862 2.13807C13.5701 1.84613 13.0968 1.84613 12.8048 2.13807L9.61723 5.32565L6.42964 8.51323C6.1766 8.76627 6.12994 8.81899 6.0983 8.87062C6.06175 8.93027 6.03482 8.9953 6.01848 9.06332C6.00435 9.1222 6.00006 9.19247 6.00006 9.55032V10H6.44976C6.80761 10 6.87788 9.99572 6.93676 9.98158C7.00479 9.96525 7.06982 9.93831 7.12946 9.90176C7.18109 9.87012 7.23381 9.82346 7.48685 9.57042L10.6744 6.38284L13.862 3.19526C14.1539 2.90333 14.1539 2.43001 13.862 2.13807ZM4.50588 2L7.33342 2C7.70161 2 8.00008 2.29848 8.00008 2.66667C8.00008 3.03486 7.70161 3.33333 7.33342 3.33333H4.53342C3.96236 3.33333 3.57417 3.33385 3.27411 3.35837C2.98183 3.38225 2.83236 3.42553 2.72809 3.47866C2.47721 3.60649 2.27324 3.81046 2.14541 4.06135C2.09228 4.16561 2.049 4.31508 2.02512 4.60736C2.0006 4.90742 2.00008 5.29561 2.00008 5.86667V11.4667C2.00008 12.0377 2.0006 12.4259 2.02512 12.726C2.049 13.0183 2.09228 13.1677 2.14541 13.272C2.27324 13.5229 2.47721 13.7268 2.7281 13.8547C2.83236 13.9078 2.98183 13.9511 3.27411 13.975C3.57417 13.9995 3.96236 14 4.53342 14H10.1334C10.7045 14 11.0927 13.9995 11.3927 13.975C11.685 13.9511 11.8345 13.9078 11.9387 13.8547C12.1896 13.7268 12.3936 13.5229 12.5214 13.272C12.5745 13.1677 12.6178 13.0183 12.6417 12.726C12.6662 12.4259 12.6667 12.0377 12.6667 11.4667V8.66667C12.6667 8.29848 12.9652 8 13.3334 8C13.7016 8 14.0001 8.29848 14.0001 8.66667V11.4942C14.0001 12.0309 14.0001 12.4738 13.9706 12.8346C13.94 13.2093 13.8743 13.5538 13.7094 13.8773C13.4538 14.3791 13.0458 14.787 12.5441 15.0427C12.2205 15.2075 11.876 15.2733 11.5013 15.3039C11.1405 15.3333 10.6976 15.3333 10.161 15.3333H4.50587C3.96923 15.3333 3.52632 15.3333 3.16553 15.3039C2.7908 15.2733 2.44633 15.2075 2.12277 15.0427C1.62101 14.787 1.21306 14.3791 0.957398 13.8773C0.792537 13.5538 0.726828 13.2093 0.696211 12.8346C0.666733 12.4738 0.66674 12.0308 0.666748 11.4942V5.83913C0.66674 5.30249 0.666733 4.85958 0.696211 4.49878C0.726828 4.12405 0.792537 3.77958 0.957398 3.45602C1.21306 2.95426 1.62101 2.54631 2.12277 2.29065C2.44633 2.12579 2.7908 2.06008 3.16553 2.02946C3.52633 1.99998 3.96924 1.99999 4.50588 2Z" fill="#475569"/>
</g>
<defs>
<clipPath id="clip0_1515_50342">
<rect width="16" height="16" fill="white"/>
</clipPath>
</defs>
</svg>
