<svg width="17" height="18" viewBox="0 0 17 18" fill="none" xmlns="http://www.w3.org/2000/svg">
<path fill-rule="evenodd" clip-rule="evenodd" d="M8.06462 0.11362C8.34987 0.0363862 8.65053 0.0363862 8.93578 0.11362C9.26692 0.203278 9.54571 0.42216 9.76821 0.596853C9.78946 0.613531 9.81019 0.629807 9.8304 0.645529L15.4823 5.04147C15.5041 5.05839 15.5257 5.07515 15.5471 5.09177C15.8609 5.33533 16.1374 5.54992 16.3435 5.8285C16.5243 6.07298 16.659 6.34841 16.741 6.64124C16.8344 6.97492 16.834 7.32493 16.8336 7.72222C16.8336 7.74932 16.8335 7.77665 16.8335 7.8042V13.8654C16.8335 14.3047 16.8336 14.6837 16.8081 14.9958C16.7811 15.3253 16.7217 15.653 16.561 15.9683C16.3214 16.4387 15.9389 16.8211 15.4685 17.0608C15.1532 17.2215 14.8255 17.2809 14.4961 17.3078C14.1839 17.3333 13.805 17.3333 13.3657 17.3333H3.63473C3.19544 17.3333 2.81648 17.3333 2.50434 17.3078C2.17489 17.2809 1.8472 17.2215 1.53189 17.0608C1.06148 16.8211 0.679031 16.4387 0.439348 15.9683C0.278686 15.653 0.219256 15.3253 0.192339 14.9958C0.166836 14.6837 0.166849 14.3047 0.166863 13.8654L0.166864 7.8042C0.166864 7.77664 0.166835 7.74932 0.166805 7.72221C0.166376 7.32493 0.165998 6.97492 0.259398 6.64124C0.341366 6.34841 0.476071 6.07298 0.656898 5.8285C0.862947 5.54991 1.13946 5.33532 1.45332 5.09175C1.47473 5.07514 1.49632 5.05838 1.51807 5.04147L7.16999 0.645528C7.19021 0.629806 7.21094 0.613531 7.23218 0.596852C7.45469 0.422159 7.73348 0.203278 8.06462 0.11362ZM8.49412 1.7346C8.43149 1.77644 8.34898 1.83997 8.19323 1.96112L2.54131 6.35705C2.12625 6.67988 2.04895 6.74917 1.99688 6.81958C1.9366 6.90107 1.8917 6.99288 1.86438 7.09049C1.84077 7.17482 1.83353 7.27838 1.83353 7.8042V13.8333C1.83353 14.3138 1.83418 14.624 1.85347 14.8601C1.87197 15.0865 1.90336 15.1704 1.92436 15.2116C2.00425 15.3684 2.13174 15.4959 2.28854 15.5758C2.32974 15.5968 2.41367 15.6282 2.64006 15.6467C2.87618 15.666 3.1864 15.6666 3.66686 15.6666H13.3335C13.814 15.6666 14.1242 15.666 14.3603 15.6467C14.5867 15.6282 14.6707 15.5968 14.7119 15.5758C14.8687 15.4959 14.9961 15.3684 15.076 15.2116C15.097 15.1704 15.1284 15.0865 15.1469 14.8601C15.1662 14.624 15.1669 14.3138 15.1669 13.8333V7.8042C15.1669 7.27838 15.1596 7.17482 15.136 7.09049C15.1087 6.99288 15.0638 6.90107 15.0035 6.81958C14.9514 6.74917 14.8741 6.67988 14.4591 6.35706L8.80717 1.96112C8.65141 1.83997 8.56891 1.77644 8.50628 1.7346C8.50416 1.73318 8.50213 1.73184 8.5002 1.73057C8.49826 1.73184 8.49624 1.73318 8.49412 1.7346ZM5.06416 9.85961C5.50987 9.74489 5.96419 10.0132 6.07891 10.4589C6.35648 11.5374 7.33644 12.3333 8.5002 12.3333C9.66395 12.3333 10.6439 11.5374 10.9215 10.4589C11.0362 10.0132 11.4905 9.74489 11.9362 9.85961C12.3819 9.97433 12.6503 10.4286 12.5355 10.8744C12.073 12.6713 10.4428 14 8.5002 14C6.55756 14 4.92735 12.6713 4.46485 10.8744C4.35013 10.4286 4.61845 9.97433 5.06416 9.85961Z" fill="#475569"/>
</svg>
