<svg width="16" height="20" viewBox="0 0 16 20" fill="none" xmlns="http://www.w3.org/2000/svg">
<path fill-rule="evenodd" clip-rule="evenodd" d="M4.79892 0.833344H10.2011C10.8719 0.833333 11.4255 0.833324 11.8765 0.870172C12.3449 0.908443 12.7755 0.99058 13.18 1.19666C13.8072 1.51623 14.3171 2.02617 14.6367 2.65338C14.8428 3.05782 14.9249 3.48841 14.9632 3.95682C15 4.40781 15 4.96144 15 5.63224V10.4167C15 10.8769 14.6269 11.25 14.1667 11.25C13.7064 11.25 13.3333 10.8769 13.3333 10.4167V5.66668C13.3333 4.95286 13.3327 4.46762 13.302 4.09254C13.2722 3.7272 13.2181 3.54036 13.1517 3.41003C12.9919 3.09642 12.7369 2.84146 12.4233 2.68167C12.293 2.61526 12.1061 2.56115 11.7408 2.5313C11.3657 2.50066 10.8805 2.50001 10.1667 2.50001H4.83333C4.11952 2.50001 3.63427 2.50066 3.2592 2.5313C2.89385 2.56115 2.70702 2.61526 2.57668 2.68167C2.26308 2.84146 2.00811 3.09642 1.84832 3.41003C1.78191 3.54036 1.72781 3.7272 1.69796 4.09254C1.66732 4.46762 1.66667 4.95286 1.66667 5.66668V14.3333C1.66667 15.0472 1.66732 15.5324 1.69796 15.9075C1.72781 16.2728 1.78191 16.4597 1.84832 16.59C2.00811 16.9036 2.26308 17.1586 2.57668 17.3184C2.70702 17.3848 2.89385 17.4389 3.2592 17.4687C3.63427 17.4994 4.11952 17.5 4.83333 17.5H7.5C7.96024 17.5 8.33333 17.8731 8.33333 18.3333C8.33333 18.7936 7.96024 19.1667 7.5 19.1667H4.7989C4.1281 19.1667 3.57447 19.1667 3.12348 19.1298C2.65506 19.0916 2.22448 19.0094 1.82003 18.8034C1.19283 18.4838 0.68289 17.9739 0.363312 17.3466C0.157237 16.9422 0.0750998 16.5116 0.0368288 16.0432C-1.90114e-05 15.5922 -1.02701e-05 15.0386 3.5941e-07 14.3678V5.63226C-1.02701e-05 4.96145 -1.90114e-05 4.40782 0.0368288 3.95682C0.0750998 3.48841 0.157237 3.05782 0.363312 2.65338C0.68289 2.02617 1.19283 1.51623 1.82003 1.19666C2.22448 0.99058 2.65506 0.908443 3.12348 0.870172C3.57447 0.833324 4.12811 0.833333 4.79892 0.833344ZM3.33333 5.83334C3.33333 5.37311 3.70643 5.00001 4.16667 5.00001H10.8333C11.2936 5.00001 11.6667 5.37311 11.6667 5.83334C11.6667 6.29358 11.2936 6.66668 10.8333 6.66668H4.16667C3.70643 6.66668 3.33333 6.29358 3.33333 5.83334ZM3.33333 9.16668C3.33333 8.70644 3.70643 8.33334 4.16667 8.33334H9.16667C9.6269 8.33334 10 8.70644 10 9.16668C10 9.62692 9.6269 10 9.16667 10H4.16667C3.70643 10 3.33333 9.62692 3.33333 9.16668ZM3.33333 12.5C3.33333 12.0398 3.70643 11.6667 4.16667 11.6667H5.83333C6.29357 11.6667 6.66667 12.0398 6.66667 12.5C6.66667 12.9602 6.29357 13.3333 5.83333 13.3333H4.16667C3.70643 13.3333 3.33333 12.9602 3.33333 12.5ZM15.5893 13.1608C15.9147 13.4862 15.9147 14.0138 15.5893 14.3393L11.8393 18.0893C11.5138 18.4147 10.9862 18.4147 10.6607 18.0893L8.99408 16.4226C8.66864 16.0972 8.66864 15.5695 8.99408 15.2441C9.31951 14.9187 9.84715 14.9187 10.1726 15.2441L11.25 16.3215L14.4107 13.1608C14.7362 12.8353 15.2638 12.8353 15.5893 13.1608Z" fill="#475569"/>
</svg>
