<svg width="17" height="20" viewBox="0 0 17 20" fill="none" xmlns="http://www.w3.org/2000/svg">
<path fill-rule="evenodd" clip-rule="evenodd" d="M4.33356 5.84437V7.50001C4.33356 7.96025 4.70666 8.33334 5.1669 8.33334C5.62713 8.33334 6.00023 7.96025 6.00023 7.50001V5.83334L11.0002 5.83334V7.50001C11.0002 7.96025 11.3733 8.33334 11.8336 8.33334C12.2938 8.33334 12.6669 7.96025 12.6669 7.50001V5.84438C12.7765 5.84833 12.8767 5.8537 12.9697 5.86099C13.3045 5.88723 13.4795 5.93477 13.605 5.99437C13.9038 6.13618 14.1536 6.36367 14.3227 6.64788C14.3937 6.76733 14.4574 6.93708 14.5148 7.26795C14.5739 7.60896 14.616 8.05116 14.6772 8.70443L15.1772 14.0378C15.2496 14.8103 15.2984 15.3379 15.3021 15.7467C15.3057 16.1467 15.2633 16.3506 15.2029 16.4913C15.0555 16.8342 14.7973 17.1178 14.4696 17.2966C14.3351 17.3699 14.1361 17.4311 13.7375 17.4648C13.3301 17.4993 12.8003 17.5 12.0244 17.5H4.9761C4.20019 17.5 3.67038 17.4993 3.26298 17.4648C2.8644 17.4311 2.66536 17.3699 2.53091 17.2966C2.20319 17.1178 1.94495 16.8342 1.79759 16.4913C1.73714 16.3506 1.69477 16.1467 1.69838 15.7467C1.70208 15.3379 1.75084 14.8103 1.82326 14.0378L2.32326 8.70443C2.38451 8.05116 2.42656 7.60895 2.4857 7.26795C2.54307 6.93708 2.60673 6.76733 2.67779 6.64788C2.84687 6.36367 3.09668 6.13618 3.39544 5.99437C3.521 5.93476 3.69595 5.88723 4.03073 5.86099C4.12373 5.8537 4.22394 5.84833 4.33356 5.84437ZM12.5851 4.17453C12.7704 4.17931 12.9418 4.18702 13.1 4.19942C13.5355 4.23356 13.9365 4.30679 14.3197 4.48873C14.9172 4.77236 15.4169 5.22733 15.755 5.79575C15.9719 6.16036 16.0823 6.55277 16.1569 6.98317C16.2285 7.39618 16.2761 7.90375 16.3336 8.51647L16.84 13.9183C16.9082 14.6458 16.9643 15.2439 16.9687 15.7316C16.9732 16.2362 16.9253 16.7043 16.7342 17.1492C16.4395 17.8352 15.923 18.4023 15.2675 18.7598C14.8424 18.9916 14.3809 19.083 13.878 19.1256C13.392 19.1667 12.7913 19.1667 12.0606 19.1667H4.93991C4.20915 19.1667 3.60846 19.1667 3.12242 19.1256C2.61957 19.083 2.15806 18.9916 1.73292 18.7598C1.07747 18.4023 0.561005 17.8352 0.266285 17.1492C0.0751206 16.7043 0.0272229 16.2362 0.0317846 15.7316C0.0361937 15.2439 0.0922708 14.6458 0.160491 13.9182L0.666909 8.51646C0.72434 7.90375 0.771917 7.39618 0.843539 6.98317C0.918179 6.55277 1.02852 6.16036 1.24544 5.79575C1.5836 5.22733 2.08322 4.77235 2.68072 4.48872C3.06399 4.30679 3.46498 4.23356 3.90047 4.19942C4.05867 4.18702 4.23004 4.17931 4.41533 4.17452C4.79835 2.26875 6.48166 0.833344 8.50023 0.833344C10.5188 0.833344 12.2021 2.26875 12.5851 4.17453ZM10.858 4.16668C10.5148 3.19568 9.58875 2.50001 8.50023 2.50001C7.41172 2.50001 6.48568 3.19568 6.14249 4.16668L10.858 4.16668Z" fill="#2F80F5"/>
</svg>
