<svg width="17" height="20" viewBox="0 0 17 20" fill="none" xmlns="http://www.w3.org/2000/svg">
<path fill-rule="evenodd" clip-rule="evenodd" d="M5.39757 0.833349C5.40409 0.833351 5.41052 0.833354 5.41686 0.833354H11.5835C11.5899 0.833354 11.5963 0.833351 11.6028 0.833349C11.7021 0.833311 11.8206 0.833265 11.925 0.841798C12.0461 0.851685 12.2194 0.877055 12.401 0.969595C12.6362 1.08944 12.8274 1.28066 12.9473 1.51587C13.0398 1.69749 13.0652 1.87081 13.0751 1.99183C13.0836 2.09626 13.0836 2.21481 13.0835 2.31408C13.0835 2.32059 13.0835 2.32702 13.0835 2.33335V4.33335C13.0835 4.33969 13.0835 4.34612 13.0835 4.35263C13.0836 4.45189 13.0836 4.57044 13.0751 4.67488C13.0652 4.79589 13.0398 4.96922 12.9473 5.15084C12.8274 5.38604 12.6362 5.57727 12.401 5.69711C12.2194 5.78965 12.0461 5.81502 11.925 5.82491C11.8954 5.82733 11.8647 5.82906 11.8335 5.8303V8.75102C11.8335 9.25523 11.8402 9.35444 11.8621 9.4359C11.8875 9.53014 11.9292 9.61919 11.9854 9.699C12.0339 9.76798 12.1058 9.83664 12.4932 10.1594L15.5742 12.7269C15.5944 12.7438 15.6146 12.7605 15.6345 12.7771C15.9277 13.0209 16.186 13.2358 16.378 13.5085C16.5465 13.7479 16.6716 14.0151 16.7477 14.2978C16.8343 14.6199 16.834 14.9559 16.8336 15.3372C16.8335 15.3631 16.8335 15.3893 16.8335 15.4157V15.6988C16.8335 15.7968 16.8335 15.8919 16.8332 15.9838C16.8337 16.0473 16.8336 16.1127 16.8336 16.1801C16.8335 16.2032 16.8335 16.2265 16.8335 16.25C16.8335 16.2736 16.8335 16.2969 16.8336 16.3199C16.8338 16.6372 16.834 16.9104 16.7855 17.1544C16.6992 17.5883 16.5022 17.9807 16.225 18.3015C16.1429 18.3963 16.0539 18.4849 15.9586 18.5665C15.6397 18.8394 15.2508 19.0332 14.8212 19.1187C14.5772 19.1672 14.304 19.167 13.9867 19.1667C13.9637 19.1667 13.9404 19.1667 13.9169 19.1667H13.4221C13.4034 19.1667 13.3846 19.1667 13.3657 19.1667H3.63472C3.61581 19.1667 3.59701 19.1667 3.57832 19.1667H3.08352C3.05999 19.1667 3.03669 19.1667 3.01363 19.1667C2.69638 19.167 2.42318 19.1672 2.17913 19.1187C1.69876 19.0231 1.26919 18.7919 0.931481 18.4663C0.8988 18.4347 0.866979 18.4023 0.836056 18.3691C0.526827 18.0366 0.307361 17.6193 0.214892 17.1544C0.166348 16.9104 0.166566 16.6372 0.166818 16.3199C0.166837 16.2969 0.166855 16.2736 0.166855 16.25C0.166855 16.2265 0.166837 16.2032 0.166818 16.1801C0.166765 16.1128 0.166713 16.0474 0.167128 15.9839C0.166848 15.8919 0.166851 15.7969 0.166854 15.6988L0.166855 15.4157C0.166855 15.3893 0.166828 15.3631 0.166801 15.3372C0.166404 14.9559 0.166055 14.6199 0.252701 14.2978C0.328762 14.0151 0.453892 13.7479 0.622387 13.5085C0.814326 13.2358 1.07268 13.0209 1.36586 12.7771C1.38582 12.7605 1.40594 12.7438 1.42621 12.7269L4.50719 10.1594C4.89454 9.83664 4.96646 9.76798 5.01501 9.699C5.07118 9.61919 5.11289 9.53014 5.13824 9.4359C5.16016 9.35444 5.16686 9.25523 5.16686 8.75102V5.8303C5.13572 5.82906 5.10496 5.82733 5.07533 5.82491C4.95432 5.81502 4.78099 5.78965 4.59937 5.69711C4.36416 5.57727 4.17294 5.38604 4.0531 5.15084C3.96056 4.96922 3.93519 4.79589 3.9253 4.67488C3.91677 4.57045 3.91681 4.4519 3.91685 4.35264C3.91685 4.34612 3.91686 4.33969 3.91686 4.33335V2.33335C3.91686 2.32702 3.91685 2.32058 3.91685 2.31407C3.91681 2.21481 3.91677 2.09626 3.9253 1.99183C3.93519 1.87081 3.96056 1.69749 4.0531 1.51587C4.17294 1.28066 4.36416 1.08944 4.59937 0.969595C4.78099 0.877055 4.95432 0.851685 5.07533 0.841798C5.17976 0.833265 5.29831 0.833311 5.39757 0.833349ZM6.83352 5.83335V8.75102C6.83352 8.77741 6.83355 8.80357 6.83358 8.82953C6.83397 9.21084 6.83432 9.54685 6.74768 9.8689C6.67162 10.1516 6.54648 10.4188 6.37799 10.6582C6.18605 10.9309 5.9277 11.1458 5.63452 11.3896C5.61456 11.4062 5.59444 11.4229 5.57417 11.4398L3.3019 13.3334H13.6985L11.4262 11.4398C11.4059 11.4229 11.3858 11.4062 11.3659 11.3896C11.0727 11.1458 10.8143 10.9309 10.6224 10.6582C10.4539 10.4188 10.3288 10.1516 10.2527 9.8689C10.1661 9.54685 10.1664 9.21084 10.1668 8.82954C10.1668 8.80358 10.1669 8.77741 10.1669 8.75102V5.83335H6.83352ZM5.58352 4.16669V2.50002H11.4169V4.16669H5.58352ZM15.1663 16.0288C15.1649 15.7869 15.1604 15.7188 15.1508 15.6708C15.0851 15.3402 14.8267 15.0818 14.4961 15.016C14.4359 15.0041 14.344 15 13.9169 15H3.08352C2.65637 15 2.56449 15.0041 2.50428 15.016C2.1737 15.0818 1.91529 15.3402 1.84953 15.6708C1.83999 15.7188 1.83549 15.7869 1.83405 16.0288C1.83531 16.3133 1.83951 16.5228 1.85346 16.6935C1.87196 16.9199 1.90336 17.0038 1.92435 17.045C1.95502 17.1052 1.99271 17.1611 2.03638 17.2116C2.0733 17.2543 2.11451 17.2932 2.15934 17.3277C2.19961 17.3586 2.24283 17.3859 2.28853 17.4092C2.32973 17.4302 2.41367 17.4616 2.64005 17.4801C2.87617 17.4994 3.18639 17.5 3.66686 17.5H13.3335C13.814 17.5 14.1242 17.4994 14.3603 17.4801C14.5867 17.4616 14.6706 17.4302 14.7118 17.4092C14.772 17.3785 14.8279 17.3408 14.8784 17.2972C14.9216 17.2598 14.9609 17.2181 14.9957 17.1727C15.0261 17.1329 15.053 17.0901 15.076 17.045C15.097 17.0038 15.1284 16.9199 15.1469 16.6935C15.1609 16.5228 15.1651 16.3133 15.1663 16.0288Z" fill="#475569"/>
</svg>
