<svg width="16" height="16" viewBox="0 0 16 16" fill="none" xmlns="http://www.w3.org/2000/svg">
<path fill-rule="evenodd" clip-rule="evenodd" d="M5.33325 2C5.33325 1.63181 5.63173 1.33333 5.99992 1.33333H9.99992C10.3681 1.33333 10.6666 1.63181 10.6666 2C10.6666 2.36819 10.3681 2.66667 9.99992 2.66667H5.99992C5.63173 2.66667 5.33325 2.36819 5.33325 2ZM3.32808 3.33333H1.99992C1.63173 3.33333 1.33325 3.63181 1.33325 4C1.33325 4.36819 1.63173 4.66667 1.99992 4.66667H2.70955L3.13735 11.0836C3.17091 11.5872 3.19869 12.004 3.2485 12.3433C3.30036 12.6964 3.38262 13.0192 3.55398 13.32C3.82074 13.7883 4.22311 14.1647 4.70807 14.3997C5.0196 14.5507 5.34712 14.6113 5.70298 14.6395C6.04477 14.6667 6.46247 14.6667 6.96721 14.6667H9.03263C9.53737 14.6667 9.95506 14.6667 10.2969 14.6395C10.6527 14.6113 10.9802 14.5507 11.2918 14.3997C11.7767 14.1647 12.1791 13.7883 12.4459 13.32C12.6172 13.0192 12.6995 12.6964 12.7513 12.3433C12.8011 12.004 12.8289 11.5872 12.8625 11.0835L13.2903 4.66667H13.9999C14.3681 4.66667 14.6666 4.36819 14.6666 4C14.6666 3.63181 14.3681 3.33333 13.9999 3.33333H12.6718C12.6679 3.3333 12.664 3.3333 12.6601 3.33333H3.33975C3.33587 3.3333 3.33198 3.3333 3.32808 3.33333ZM11.954 4.66667H4.04584L4.46597 10.9685C4.50174 11.5052 4.52648 11.8689 4.56769 12.1496C4.60772 12.4222 4.65662 12.5619 4.7125 12.66C4.84588 12.8941 5.04707 13.0823 5.28955 13.1999C5.39115 13.2491 5.53382 13.2886 5.80849 13.3104C6.09127 13.3328 6.45582 13.3333 6.99369 13.3333H9.00615C9.54402 13.3333 9.90857 13.3328 10.1913 13.3104C10.466 13.2886 10.6087 13.2491 10.7103 13.1999C10.9528 13.0823 11.154 12.8941 11.2873 12.66C11.3432 12.5619 11.3921 12.4222 11.4321 12.1496C11.4734 11.8689 11.4981 11.5052 11.5339 10.9685L11.954 4.66667ZM6.66659 6.33333C7.03478 6.33333 7.33325 6.63181 7.33325 7V10.3333C7.33325 10.7015 7.03478 11 6.66659 11C6.2984 11 5.99992 10.7015 5.99992 10.3333V7C5.99992 6.63181 6.2984 6.33333 6.66659 6.33333ZM9.33325 6.33333C9.70144 6.33333 9.99992 6.63181 9.99992 7V10.3333C9.99992 10.7015 9.70144 11 9.33325 11C8.96506 11 8.66659 10.7015 8.66659 10.3333V7C8.66659 6.63181 8.96506 6.33333 9.33325 6.33333Z" fill="#EF4444"/>
</svg>
